<svg t="1729358128078" class="icon" viewBox="0 0 1024 1024" version="1.1" xmlns="http://www.w3.org/2000/svg" p-id="5592" width="200" height="200"><path d="M511.91329 273.180903c150.177032 0.776258 264.097032 116.748387 254.711742 248.373678-9.360516 131.885419-123.280516 232.064-254.538322 233.100387-131.24129 0.68129-245.177806-99.49729-254.711742-233.100387-9.562839-133.338839 104.348903-249.310968 254.538322-248.373678z" fill="#FFD154" p-id="5593"></path><path d="M511.892645 216.61729c-15.562323-0.090839-28.259097-11.235097-28.366451-25.00129l-0.619355-94.183226c-0.107355-13.762065 12.845419-24.906323 28.932129-24.765935 16.08671 0.136258 29.047742 11.486968 28.952774 25.232516l-0.549161 94.071742c-0.099097 13.753806-12.791742 24.732903-28.349936 24.646193zM259.385806 317.113806c-7.064774 0.371613-14.265806-1.680516-19.959741-6.251354a4423.357935 4423.357935 0 0 0-79.029678-62.009807c-11.705806-8.964129-13.035355-24.798968-2.758193-35.365161 10.260645-10.562065 28.24671-11.763613 39.952516-2.683871C224.301419 231.490065 250.657032 252.382968 276.645161 273.465806c11.400258 9.253161 12.139355 25.075613 1.862194 35.344517-5.136516 5.140645-12.060903 7.931871-19.121549 8.303483zM173.336774 552.613161a4232.505806 4232.505806 0 0 0-98.696258 9.158194c-14.397935 1.507097-27.309419-8.381935-28.849548-22.193549-1.544258-13.811613 9.038452-26.314323 23.638709-27.825548 33.263484-3.443613 66.555871-6.499097 99.873033-9.162323 14.625032-1.168516 27.30529 9.166452 28.312774 22.973936 1.015742 13.815742-9.856 25.880774-24.27871 27.04929zM224.309677 845.902452a23.989677 23.989677 0 0 1-17.763096-5.900387c-10.268903-8.951742-11.598452-24.786581-2.758194-35.369291a3592.96 3592.96 0 0 1 61.576258-71.779097c9.162323-10.40929 25.096258-11.383742 35.37342-2.176 10.289548 9.207742 11.032774 25.030194 1.862193 35.348646a3555.410581 3555.410581 0 0 0-61.60929 71.201032 24.32 24.32 0 0 1-16.681291 8.675097zM512.161032 955.169032c-13.031226 0.136258-23.675871-10.834581-23.783226-24.604903l-0.619354-94.179097c-0.107355-13.762065 10.79329-25.075613 24.348903-25.166451 13.551484-0.090839 24.468645 11.057548 24.369548 24.803096l-0.55329 94.071742c-0.090839 13.753806-10.731355 24.935226-23.762581 25.075613zM800.132129 841.666065a24.167226 24.167226 0 0 1-16.72671-8.336517 4026.797419 4026.797419 0 0 0-61.745548-69.636129 24.666839 24.666839 0 0 1 1.820903-35.010064c10.273032-9.203613 26.219355-8.365419 35.398194 1.841548a4018.993548 4018.993548 0 0 1 61.724903 70.210065c8.860903 10.32671 7.564387 25.922065-2.708645 34.873806a24.456258 24.456258 0 0 1-17.763097 6.057291zM949.404903 561.300645a4234.322581 4234.322581 0 0 0-98.704516-9.050839c-14.42271-1.152-25.315097-13.051871-24.324129-26.685935 0.990968-13.625806 13.658839-23.799742 28.279742-22.61471 33.308903 2.696258 66.60129 5.784774 99.860645 9.269678 14.600258 1.527742 25.203613 13.819871 23.692387 27.354838-1.511226 13.539097-14.406194 23.221677-28.804129 21.726968zM764.387097 319.203097c-7.052387-0.429419-13.980903-3.257806-19.11742-8.398452-10.285419-10.268903-9.55871-25.959226 1.820904-35.010064a3919.265032 3919.265032 0 0 1 78.893419-61.10142c11.68929-8.819613 29.65471-7.38271 39.911226 3.183484 10.273032 10.566194 8.972387 26.165677-2.708645 34.873807a3873.098323 3873.098323 0 0 0-78.864516 60.444903c-5.685677 4.471742-12.878452 6.437161-19.934968 6.007742z" fill="#FFBF00" p-id="5594"></path></svg>